<svg stroke="white" fill="white" id="Layer_1" data-name="Layer 1" xmlns="http://www.w3.org/2000/svg"
  viewBox="0 0 1280 1024">
  <path d="M653.91,590.55l-.59-.45-1.6-1.21-.45.25-.11,2.17,0,.84-.11,2.14c.42-.26.87-.51,1.29-.73l2.42-2.39Z" />
  <path
    d="M651.72,588.89l-.42-.31,0,.56-.11,2.17c.73-.39,1.43-.82,2.16-1.21Zm0,0-.42-.31,0,.56-.11,2.17c.73-.39,1.43-.82,2.16-1.21Zm2.19,1.66-2.78,1.6-.11,2.14,0,.56,1.32-1.29,2.42-2.39Zm-2.19-1.66-.42-.31,0,.56-.11,2.17c.73-.39,1.43-.82,2.16-1.21Z" />
  <path
    d="M1088.43,408.25c-9.58-50.69-58-82.47-112.64-73.93-24.73,3.88-47,15.85-68.62,27.42-6.8,3.65-13.83,7.42-20.77,10.85-56.5,27.87-123.52,15.34-183.9-34.34C677.29,317.51,656.3,292,636,267.33s-41.25-50-66.54-71.09c-53.61-44.62-113.72-63.7-169.27-53.75C325.3,155.89,253,216.75,215.86,297.56c-35.91,78.23-34.09,162,5,229.91,37.65,65.38,111,112.25,196.18,125.37A274.37,274.37,0,0,0,458.6,656h0c39,0,78.42-8.15,120.63-24.9,51.36-20.37,101-51.25,144.7-78.53,32.91-20.49,60.47-30.71,86.75-32.17,22-1.21,43.32,6.43,64,13.85,9.75,3.48,19.81,7.11,29.93,9.78,52,13.79,114.19-.73,151.37-35.32C1076,490.18,1097.76,457.7,1088.43,408.25ZM576.31,623.71c-55.67,22.08-107.37,29-158.06,21.21-82.81-12.76-154-58.14-190.45-121.44-37.79-65.61-39.51-146.73-4.67-222.57,36.05-78.51,106.1-137.57,178.46-150.55a159,159,0,0,1,27.76-2.45c45.49,0,92.16,18.86,135,54.48,24.72,20.57,45.43,45.72,65.47,70.05,20.56,25,41.81,50.78,67.6,72,62.91,51.79,133.08,64.66,192.53,35.35,7-3.48,14.11-7.28,21-11,21-11.26,42.68-22.9,66.06-26.55,50.21-7.89,94.78,21.13,103.55,67.49,8.68,45.86-11.53,76-30,93.15-35.29,32.79-94.44,46.56-143.86,33.44-9.75-2.59-19.67-6.15-29.28-9.58-21.38-7.67-43.5-15.6-67.18-14.3-27.65,1.51-56.43,12.11-90.54,33.38C676.25,572.9,627,603.59,576.31,623.71ZM651,594.85l0-.56.11-2.14,0-.84.11-2.17,0-.56.42.31,1.6,1.21.59.45.82.62-2.42,2.39Z" />
  <path d="M652.61,591.26v0l0,0Z" />
  <polygon
    points="654.73 591.17 652.31 593.56 650.99 594.85 651.02 594.29 651.13 592.15 651.16 591.31 651.27 589.14 651.3 588.58 651.72 588.89 653.33 590.1 653.91 590.55 654.73 591.17" />
  <path d="M933.92,750.63l-.34-.14v-.26C933.69,750.38,933.81,750.49,933.92,750.63Z" />
  <path
    d="M994.92,746.92a3.42,3.42,0,0,0-2.61-.9,3.58,3.58,0,0,0-2.59,1,3.19,3.19,0,0,0-.78,2.31c0,.44,0,.87,0,1.32l0,11.52v51.61l-51.06-64.71c-.45-.59-.9-1.18-1.4-1.74a4.49,4.49,0,0,0-4.75-1.12c-.93.19-2.42.92-2.2,3.51a7.37,7.37,0,0,0,0,1.38v71.34a11.61,11.61,0,0,1,0,1.18,3.28,3.28,0,0,0,.81,2.39,3.56,3.56,0,0,0,2.56,1,3.48,3.48,0,0,0,2.61-.9,3,3,0,0,0,.84-2.3c0-.45,0-.87,0-1.29V758.35q22.51,28.46,45,56.93l8,10.2a3.89,3.89,0,0,0,3.07,1.52,4.58,4.58,0,0,0,1.34-.22c1-.31,2.06-1.13,1.94-3.4,0-.4,0-.76,0-1.13V750.46a7.36,7.36,0,0,1,0-1.15A3.16,3.16,0,0,0,994.92,746.92Zm-61.34,3.37v-.06c.11.15.23.26.34.4l-.34-.14Z" />
  <path
    d="M826.05,823c-.26-.64-.54-1.29-.82-1.91l-29.33-63.5q-2.07-4.47-4.13-8.94a4.36,4.36,0,0,0-5.57-2.41,4,4,0,0,0-2.47,2.83c-.06.12-.08.26-.14.4q-16.65,36-33.18,72l-.2.33a5.18,5.18,0,0,0-.76,3.15l.17,1.46,1.43.31a9.1,9.1,0,0,0,1.94.25c2,0,2.89-1,3.6-2.64l3.48-7.64c2.22-4.78,4.41-9.55,6.55-14.36.34-.76.5-.84,1.35-.84,12.87,0,26.24,0,39.73,0,.9,0,1.07.08,1.38.84,2.61,5.79,5.28,11.55,7.95,17.31l2,4.27c1.41,3,2.42,3.29,5.85,2.78l2.61-.39Zm-20.49-28.12h-35.4q5.36-11.9,10.76-23.69,3.42-7.42,6.83-14.89Z" />
  <path
    d="M656.42,821.63a4.29,4.29,0,0,1-.29-.5q-11.42-24.75-22.81-49.4L628,760.24c-1.74-3.77-3.48-7.53-5.17-11.3A4.3,4.3,0,0,0,618.2,746a3.83,3.83,0,0,0-3.48,2.81l-.14.34c-11.21,24.33-22.43,48.64-33.72,73.17a3.22,3.22,0,0,0-.11,3.45l.56.84,1,.12c3,.28,4,0,5.28-2.81l1.86-4q4-8.69,7.89-17.4c.45-1,.68-1.06,1.74-1.12,12.2.08,25,.08,39.2,0,1.13,0,1.38.17,1.77,1.07,2.42,5.42,4.92,10.82,7.42,16.18l2.39,5.17c1.09,2.31,1.94,3,3.79,3a17.61,17.61,0,0,0,1.86-.14l1.65-.2.12-1.68A6.12,6.12,0,0,0,656.42,821.63Zm-20.09-26.77H601c3.77-8.38,7.56-16.67,11.36-25,2.05-4.44,4.1-8.9,6.12-13.34C622.78,765,633,787,636.33,794.86Z" />
  <path
    d="M327.86,766.14c-.65-8-4.64-13.74-11.92-17a36,36,0,0,0-11.6-2.79c-5-.44-10-.39-14.81-.36-2.42,0-4.8.06-7.19,0l-.93,0c-.39,0-.79,0-1.15,0a3.43,3.43,0,0,0-2.76.93,3.28,3.28,0,0,0-.87,2.61c0,.37,0,.76,0,1.12V824a3,3,0,0,0,3.29,3H280c3.14-.05,3.45-2.22,3.45-3.17V793.06c0-.34,0-.73,0-1h.87l4.83,0c3.71,0,7.45,0,11.16-.06a36.14,36.14,0,0,0,16.49-4,19.94,19.94,0,0,0,10.74-14,21.86,21.86,0,0,0,.45-4.55C328,768.27,327.94,767.15,327.86,766.14Zm-7.06,5.31c-.67,5.06-3.54,8.77-8.79,11.27-4.83,2.33-10.14,2.75-15.17,2.83-3.66.09-7.31.06-11,0h-2.39c0-4,0-7.92,0-11.91v-9.19q0-5.94,0-11.89c2.47.06,5,0,7.45,0a103.94,103.94,0,0,1,13.43.45,33.52,33.52,0,0,1,6.66,1.52c8.26,2.78,10,9.19,10,14.05A20.17,20.17,0,0,1,320.8,771.45Z" />
  <path
    d="M475.94,808.31c-2.59-3.34-5.17-6.71-7.76-10L465,794.07c-1.43-1.86-2.89-3.74-4.35-5.68.56,0,1.09-.17,1.63-.25,6.4-1.18,11.29-3.26,15.37-6.58,4.66-3.73,7.13-10.11,6.49-16.63a18,18,0,0,0-9.5-14.5,36.24,36.24,0,0,0-10.85-3.51c-6.83-1-13.74-1-20.42-.9-3.07,0-6.13.08-9.22,0a3.37,3.37,0,0,0-2.64,1,3.47,3.47,0,0,0-.85,2.64,5,5,0,0,1,0,1v72c0,.37,0,.76,0,1.15a3.16,3.16,0,0,0,.88,2.39,3.32,3.32,0,0,0,2.38.9h.2a3.48,3.48,0,0,0,2.59-1,3.25,3.25,0,0,0,.78-2.31v-1.15l0-.67,0-32.74,3.51,0c3.29,0,6.69.06,10.06-.09a2.88,2.88,0,0,1,2.79,1.41c4.77,6.24,9.58,12.45,14.35,18.66,3.91,5,7.82,10.06,11.67,15.11a5.53,5.53,0,0,0,6.8,2.28l2.72-.9Zm-27.15-25.73c-1,0-2,0-3,0H444c-.93,0-1.88,0-2.84,0-1.21,0-2.39,0-3.74,0,0-3.63,0-7.25,0-10.88v-8.32c0-3.59,0-7.19,0-10.79,2.59.06,5.17,0,7.76,0a116,116,0,0,1,14.55.48,32,32,0,0,1,10.68,3,12.06,12.06,0,0,1,6.66,9.86,12.86,12.86,0,0,1-4.72,11.36c-3.15,2.41-7,4-12.2,4.77A66.75,66.75,0,0,1,448.79,782.58Z" />
  <path
    d="M1043.42,718.31a23.41,23.41,0,1,0,23.4,23.41A23.45,23.45,0,0,0,1043.42,718.31Zm0,42.55a19.14,19.14,0,1,1,19.13-19.14A19.16,19.16,0,0,1,1043.42,760.86Z" />
  <path
    d="M1046.65,744.61l-.84-1.09a11.65,11.65,0,0,0,5.08-2.33,7.32,7.32,0,0,0,2.53-6.38,7,7,0,0,0-3.68-5.59,12.93,12.93,0,0,0-4-1.27,43,43,0,0,0-7.22-.34c-1.07,0-2.11,0-3.18,0h-.05a1.81,1.81,0,0,0-1.86,2l1.1-.06s0,.06,0,.09l-1.1.45,0,25.15a1.73,1.73,0,0,0,.48,1.34,1.88,1.88,0,0,0,1.35.54h0a1.81,1.81,0,0,0,1.89-1.86V744h.53c1.15,0,2.33,0,3.49,0,.22,0,.22,0,.39.2,1.66,2.16,3.31,4.32,5,6.49l4,5.25a2.6,2.6,0,0,0,3.12,1l1.88-.62Zm1.57-6a8.29,8.29,0,0,1-3.93,1.52,19.08,19.08,0,0,1-3.82.17h-3.23v-9h2a36.57,36.57,0,0,1,5,.16,9.6,9.6,0,0,1,3.48,1,3.58,3.58,0,0,1,1.94,2.87A3.74,3.74,0,0,1,1048.22,738.6Z" />
</svg>